<?xml version="1.0" encoding="UTF-8"?>
<svg xmlns="http://www.w3.org/2000/svg" width="30" height="30" viewBox="0 0 30 30" fill="none">
  <g clip-path="url(#clip0_1835_361)">
    <path d="M15.2686 13.5006C18.0014 13.5006 20.2169 11.2851 20.2169 8.55228C20.2169 5.81942 18.0014 3.604 15.2686 3.604C12.5357 3.604 10.3203 5.81942 10.3203 8.55228C10.3203 11.2851 12.5357 13.5006 15.2686 13.5006Z" stroke="#3B4443" stroke-width="1.79937"></path>
    <path d="M4.63653 25.1836C4.36543 25.1836 5.41146 22.1319 5.49903 21.9136C7.06449 18.0125 10.1546 18.0305 15.2588 18.0305C20.3631 18.0305 23.8478 18.0137 25.4145 21.9136C25.5021 22.1319 26.1522 25.1812 25.8799 25.1812H4.63653V25.1836Z" stroke="#3B4443" stroke-width="1.79937"></path>
  </g>
  <defs>
    <clipPath id="clip0_1835_361">
      <rect width="28.79" height="28.79" fill="white" transform="translate(0.873047 0.449707)"></rect>
    </clipPath>
  </defs>
</svg>
