<?xml version="1.0" encoding="UTF-8"?>
<svg xmlns="http://www.w3.org/2000/svg" width="182" height="94" viewBox="0 0 182 94" fill="none">
  <path d="M9.78013 65.2965H24.8361C31.0977 65.2965 34.7561 63.2562 37.2889 61.7787V66H5.1367L32.6455 19.3546H17.5895C11.3279 19.3546 7.66948 21.3949 5.1367 22.8724V18.6511H37.2889L9.78013 65.2965ZM44.3722 18.6511V66H40.7841V18.6511H44.3722ZM75.6412 66H49.3284V18.6511H52.9165V65.2965H63.1883C69.4499 65.2965 73.1788 63.2562 75.6412 61.7787V66ZM96.4267 21.8874L108.528 66H104.799L99.9444 48.4113C93.1903 49.9591 91.7832 53.125 89.3912 58.472C87.6323 62.3415 85.6624 66.2111 81.5114 66.2111H81.3004C79.8229 66.1407 78.7676 65.8593 78.064 65.0854C77.5012 64.5225 77.2198 63.819 77.1494 63.1154C77.1494 63.0451 77.0791 63.0451 77.0791 63.0451C77.0087 62.6933 77.0087 62.3415 77.0087 61.9898C77.0087 61.2862 77.0791 60.5123 77.2901 59.8791L87.773 21.8874C88.4062 19.7064 90.2354 18.5807 92.135 18.5807C93.9643 18.5807 95.8638 19.7064 96.4267 21.8874ZM83.2703 63.1154C88.758 56.0799 88.969 50.733 99.7334 47.7077L92.6275 21.6764C92.3461 20.621 91.5018 20.1286 90.6576 20.1286C89.743 20.1286 88.8987 20.621 88.6173 21.6764L78.3454 58.9645C78.064 59.7384 77.853 60.8641 77.853 61.9194C77.853 62.9044 78.064 63.7486 78.6269 64.2411C79.1194 64.5929 79.6118 64.804 80.245 64.804C81.3004 64.804 82.426 64.1708 83.2703 63.1154ZM147.989 62.6933L148.482 62.9747C147.567 64.804 146.23 66.4221 142.361 66.4221H141.657C135.958 66.0704 134.481 58.261 133.496 55.2357C131.245 48.4113 127.797 47.6374 123.506 46.0895C122.099 45.5971 121.184 44.9639 121.043 44.1196V43.8382C121.043 43.4161 121.184 42.9939 121.395 42.7125C121.887 41.9386 122.943 41.5868 124.42 41.3054H124.491C124.491 41.235 124.561 41.235 124.631 41.235C129.204 40.3204 134.411 39.1244 137.366 36.0288C138.843 34.481 139.687 32.4407 139.687 29.6968C139.687 26.1087 138.843 23.787 137.366 22.2392C134.974 19.7064 131.034 19.3546 126.812 19.3546H115.626V66H112.038V18.6511H128.853C132.511 18.6511 135.255 19.1436 137.366 19.9878C138.913 20.621 140.039 21.3949 140.954 22.3096C143.064 24.4906 143.486 27.3048 143.486 29.5561V30.119C143.346 32.9332 142.361 35.0438 140.954 36.5916C139.969 37.6469 138.702 38.4912 137.366 39.1244C134.34 40.6019 130.682 41.0943 127.657 41.5165C124.983 41.8682 122.661 42.22 121.958 43.1346C121.747 43.3457 121.747 43.6271 121.747 43.9789C121.887 44.7528 123.084 45.2453 124.702 45.7378C124.702 45.7378 132.37 47.567 135.325 51.3662C137.225 53.7582 137.717 56.7131 138.843 59.1756C139.687 61.2159 140.32 63.6079 142.009 64.5225C142.783 64.9447 143.486 65.1557 144.12 65.1557C146.512 65.1557 147.989 62.6933 147.989 62.6933ZM164.77 21.8874L176.871 66H173.142L168.288 48.4113C161.534 49.9591 160.127 53.125 157.734 58.472C155.976 62.3415 154.006 66.2111 149.855 66.2111H149.644C148.166 66.1407 147.111 65.8593 146.407 65.0854C145.844 64.5225 145.563 63.819 145.493 63.1154C145.493 63.0451 145.422 63.0451 145.422 63.0451C145.352 62.6933 145.352 62.3415 145.352 61.9898C145.352 61.2862 145.422 60.5123 145.633 59.8791L156.116 21.8874C156.749 19.7064 158.579 18.5807 160.478 18.5807C162.308 18.5807 164.207 19.7064 164.77 21.8874ZM151.614 63.1154C157.101 56.0799 157.312 50.733 168.077 47.7077L160.971 21.6764C160.689 20.621 159.845 20.1286 159.001 20.1286C158.086 20.1286 157.242 20.621 156.961 21.6764L146.689 58.9645C146.407 59.7384 146.196 60.8641 146.196 61.9194C146.196 62.9044 146.407 63.7486 146.97 64.2411C147.463 64.5929 147.955 64.804 148.588 64.804C149.644 64.804 150.769 64.1708 151.614 63.1154Z" fill="#3B4443"></path>
  <path d="M134.314 81.3366C134.314 82.4975 133.969 83.6323 133.324 84.5976C132.68 85.5629 131.763 86.3152 130.69 86.7595C129.618 87.2038 128.437 87.32 127.299 87.0935C126.16 86.867 125.114 86.308 124.293 85.4871C123.473 84.6662 122.913 83.6203 122.687 82.4817C122.461 81.3431 122.577 80.1628 123.021 79.0903C123.465 78.0177 124.218 77.101 125.183 76.456C126.148 75.8111 127.283 75.4668 128.444 75.4668C130.001 75.4668 131.494 76.0852 132.595 77.186C133.695 78.2868 134.314 79.7798 134.314 81.3366Z" fill="#A32C31"></path>
  <mask id="mask0_1844_1305" style="mask-type:luminance" maskUnits="userSpaceOnUse" x="123" y="76" width="11" height="11">
    <path d="M125.021 79.7716C125.113 79.7729 125.201 79.8047 125.273 79.8618C125.345 79.9189 125.396 79.9981 125.418 80.0872C125.44 80.1762 125.432 80.2701 125.395 80.354C125.358 80.438 125.294 80.5073 125.213 80.5513C125.133 80.5952 125.04 80.6112 124.949 80.5968C124.859 80.5825 124.776 80.5385 124.713 80.4718C124.65 80.4051 124.611 80.3194 124.601 80.2281C124.592 80.1368 124.614 80.0451 124.662 79.9672C124.624 79.9835 124.584 79.9937 124.543 79.9977C124.373 81.0846 125.451 80.8672 125.451 80.8672C125.849 80.7694 127.895 78.4541 127.895 78.4541L127.738 78.3128C127.497 78.0954 127.643 78.1128 127.643 78.1128L128.684 79.0498L128.362 79.0368C127.349 80.4542 126.427 80.8999 126.053 81.0303C124.314 81.4129 124.314 80.2607 124.314 80.2607L123.066 81.2499C125.532 83.1738 126.484 84.2478 126.849 84.7913C126.857 84.6872 126.903 84.5898 126.98 84.5188C127.056 84.4477 127.157 84.4082 127.261 84.4082C127.365 84.4082 127.466 84.4477 127.542 84.5188C127.619 84.5898 127.666 84.6872 127.673 84.7913C127.674 84.8453 127.664 84.8989 127.643 84.949C127.623 84.9991 127.593 85.0447 127.555 85.0831C127.517 85.1215 127.472 85.152 127.422 85.1728C127.372 85.1936 127.318 85.2043 127.264 85.2043C127.188 85.2068 127.112 85.1863 127.047 85.1456C127.064 85.1825 127.075 85.2223 127.077 85.263C128.164 85.4261 127.936 84.3478 127.936 84.3478C127.834 83.9521 125.503 81.926 125.503 81.926L125.364 82.0825C125.147 82.326 125.166 82.1803 125.166 82.1803L126.121 81.1564V81.1325L126.197 81.1499V81.4629C127.449 82.4216 127.936 83.2695 128.108 83.6782C128.495 85.4348 127.34 85.4174 127.34 85.4174L128.33 86.6653C130.254 84.2 131.328 83.2478 131.871 82.8825C131.79 82.8817 131.71 82.8568 131.643 82.811C131.576 82.7652 131.523 82.7005 131.493 82.6251C131.462 82.5496 131.454 82.4668 131.471 82.3871C131.487 82.3073 131.526 82.2341 131.584 82.1767C131.642 82.1192 131.715 82.0802 131.795 82.0643C131.875 82.0485 131.958 82.0566 132.033 82.0877C132.108 82.1187 132.173 82.1713 132.218 82.2389C132.264 82.3064 132.288 82.3859 132.288 82.4673C132.289 82.5441 132.268 82.6194 132.228 82.6847C132.265 82.6676 132.304 82.6565 132.345 82.6521C132.508 81.5651 131.43 81.7934 131.43 81.7934C131.034 81.8955 129.008 84.2261 129.008 84.2261L129.164 84.3674C129.408 84.5848 129.262 84.5652 129.262 84.5652L128.362 83.7282L128.312 83.5608L128.484 83.6673C129.113 82.8577 129.886 82.1708 130.764 81.6412H130.78C132.588 81.2325 132.569 82.4108 132.569 82.4108L133.825 81.4325C131.373 79.4737 130.438 78.3933 130.069 77.8585C130.067 77.9398 130.041 78.0189 129.995 78.0857C129.948 78.1526 129.883 78.2041 129.807 78.234C129.732 78.2639 129.649 78.2707 129.569 78.2536C129.49 78.2365 129.417 78.1963 129.36 78.138C129.303 78.0797 129.265 78.0059 129.25 77.9259C129.235 77.8458 129.244 77.7632 129.276 77.6882C129.307 77.6133 129.361 77.5495 129.429 77.5047C129.497 77.4599 129.576 77.4363 129.658 77.4367C129.744 77.4343 129.83 77.453 129.908 77.4911C129.896 77.4493 129.873 77.4113 129.843 77.3802C128.756 77.2106 128.973 78.2889 128.973 78.2889C129.073 78.6867 131.388 80.7303 131.388 80.7303L131.53 80.5759C131.747 80.3346 131.728 80.4781 131.728 80.4781L130.764 81.4934L130.738 81.2368C129.923 80.6823 129.256 79.9357 128.797 79.0628C128.221 77.4324 129.717 77.2128 129.717 77.2128L128.588 76.0171C126.645 78.4672 125.564 79.4107 125.019 79.7737" fill="white"></path>
  </mask>
  <g mask="url(#mask0_1844_1305)">
    <path d="M133.827 76.0137H123.072V86.6684H133.827V76.0137Z" fill="url(#paint0_linear_1844_1305)"></path>
  </g>
  <mask id="mask1_1844_1305" style="mask-type:luminance" maskUnits="userSpaceOnUse" x="126" y="79" width="5" height="5">
    <path d="M126.119 81.0021C126.164 81.0685 126.195 81.1435 126.21 81.2225C126.224 81.3015 126.222 81.3826 126.204 81.4608C126.204 81.4608 127.565 82.4499 128.115 83.6761C128.115 83.6761 128.163 83.4369 128.484 83.6609C129.107 82.845 129.881 82.1571 130.765 81.6347L130.741 81.2325C129.937 80.6653 129.273 79.9217 128.8 79.0585L128.684 79.0433L128.363 79.0303C128.363 79.0303 127.363 80.5216 126.119 80.9999" fill="white"></path>
  </mask>
  <g mask="url(#mask1_1844_1305)">
    <path d="M130.763 79.0327H126.119V83.6785H130.763V79.0327Z" fill="url(#paint1_linear_1844_1305)"></path>
  </g>
  <path d="M129.569 81.4825C129.574 81.4692 129.574 81.4546 129.569 81.4412C129.485 81.3372 129.419 81.2195 129.375 81.0934C129.36 81.026 129.353 80.876 129.453 80.8412C129.553 80.8064 129.603 80.9477 129.582 81.0325C129.56 81.1173 129.686 81.1477 129.706 81.0673C129.728 81.0173 129.734 80.9617 129.723 80.9081C129.713 80.8544 129.686 80.8053 129.647 80.7673C129.575 80.7188 129.487 80.7008 129.401 80.7173C129.283 80.6853 129.168 80.6432 129.058 80.5912C128.986 80.5477 128.917 80.4803 128.945 80.389C128.952 80.3593 128.97 80.3333 128.995 80.3167C129.021 80.3 129.052 80.294 129.082 80.2999C129.153 80.3194 129.149 80.3999 129.149 80.4629C129.152 80.4779 129.16 80.4914 129.172 80.5012C129.183 80.5109 129.198 80.5163 129.213 80.5163C129.229 80.5163 129.243 80.5109 129.255 80.5012C129.267 80.4914 129.275 80.4779 129.277 80.4629C129.277 80.3281 129.247 80.1846 129.093 80.1694C129.044 80.1645 128.996 80.1731 128.952 80.1942C128.908 80.2153 128.871 80.2481 128.845 80.289C128.845 80.289 128.845 80.289 128.83 80.289C128.718 80.349 128.593 80.3811 128.467 80.3825C128.416 80.3872 128.366 80.3774 128.321 80.3542C128.306 80.3463 128.294 80.3354 128.284 80.3222C128.274 80.309 128.267 80.2939 128.264 80.2778C128.26 80.2618 128.26 80.2451 128.264 80.2291C128.267 80.213 128.274 80.1978 128.284 80.1846C128.356 80.1694 128.393 80.1846 128.395 80.2455C128.397 80.3064 128.54 80.2912 128.519 80.2107C128.49 80.0955 128.397 79.9694 128.262 80.0325C128.218 80.058 128.183 80.096 128.161 80.1418C128.139 80.1875 128.131 80.2387 128.138 80.289C128.054 80.3724 127.98 80.4667 127.921 80.5694C127.902 80.6074 127.876 80.6411 127.844 80.6688C127.812 80.6964 127.774 80.7173 127.734 80.7303C127.713 80.7351 127.691 80.7349 127.669 80.7296C127.648 80.7243 127.629 80.7141 127.612 80.6999C127.591 80.659 127.586 80.6115 127.599 80.5673C127.599 80.5281 127.63 80.5042 127.68 80.4955C127.732 80.5607 127.823 80.4694 127.771 80.4064C127.588 80.1781 127.336 80.6434 127.553 80.8107L127.582 80.8325C127.598 80.9544 127.598 81.078 127.582 81.1999C127.566 81.2782 127.532 81.3651 127.434 81.3608C127.373 81.3608 127.262 81.2629 127.338 81.2064C127.414 81.1499 127.338 81.0434 127.273 81.0934C127.086 81.2325 127.243 81.4977 127.451 81.489C127.466 81.4902 127.482 81.4902 127.497 81.489C127.545 81.5745 127.598 81.6572 127.656 81.7369C127.706 81.798 127.735 81.8747 127.736 81.9543C127.736 81.9999 127.701 82.0782 127.638 82.0651C127.619 82.0651 127.553 81.989 127.595 81.9738C127.671 81.9412 127.595 81.8303 127.53 81.8608C127.464 81.8912 127.434 82.0564 127.482 82.126C127.518 82.1646 127.566 82.1898 127.619 82.1977C127.671 82.2055 127.725 82.1956 127.771 82.1695C127.807 82.1482 127.834 82.1152 127.849 82.076H127.86C127.999 82.0763 128.135 82.1122 128.256 82.1804C128.288 82.2082 128.313 82.2442 128.327 82.2847C128.341 82.3252 128.344 82.3687 128.336 82.4108C128.337 82.4385 128.329 82.4657 128.314 82.4891L128.232 82.5325C128.182 82.5325 128.21 82.4325 128.219 82.4086C128.22 82.3933 128.217 82.3778 128.208 82.365C128.199 82.3522 128.186 82.3428 128.171 82.3386C128.157 82.3345 128.141 82.3357 128.127 82.3422C128.113 82.3486 128.101 82.3598 128.095 82.3738C128.06 82.4847 128.062 82.6195 128.197 82.6565C128.228 82.6631 128.259 82.663 128.29 82.6562C128.321 82.6494 128.35 82.636 128.375 82.617C128.4 82.598 128.42 82.5738 128.435 82.5461C128.45 82.5184 128.458 82.4878 128.46 82.4565C128.46 82.4347 128.46 82.4151 128.46 82.3956C128.47 82.3922 128.478 82.387 128.486 82.3804C128.595 82.2724 128.722 82.1848 128.862 82.1217C128.949 82.0825 129.093 82.0456 129.136 82.1804C129.145 82.2264 129.138 82.2743 129.114 82.3151C129.082 82.3891 129.034 82.3956 128.971 82.3325C128.971 82.2499 128.849 82.2521 128.84 82.3325C128.838 82.3621 128.844 82.3917 128.856 82.4185C128.869 82.4454 128.888 82.4687 128.912 82.4861C128.936 82.5035 128.964 82.5145 128.993 82.5181C129.022 82.5216 129.052 82.5176 129.08 82.5065C129.142 82.481 129.195 82.4353 129.229 82.3766C129.263 82.3179 129.276 82.2496 129.267 82.1825C129.262 82.1579 129.255 82.1338 129.245 82.1108C129.248 82.1009 129.248 82.0902 129.245 82.0804C129.243 81.958 129.269 81.8367 129.321 81.726C129.349 81.6651 129.403 81.5934 129.48 81.5934C129.504 81.5941 129.526 81.6035 129.544 81.62C129.561 81.6364 129.572 81.6586 129.574 81.6824C129.576 81.7062 129.57 81.73 129.555 81.7493C129.541 81.7685 129.52 81.7819 129.497 81.7869C129.417 81.8043 129.451 81.9282 129.532 81.9108C129.589 81.916 129.647 81.898 129.691 81.8609C129.736 81.8238 129.764 81.7706 129.769 81.713C129.774 81.6553 129.756 81.5979 129.719 81.5535C129.682 81.5091 129.629 81.4812 129.571 81.476M129.212 81.6456C129.161 81.7507 129.129 81.864 129.117 81.9804C129.065 81.9562 129.008 81.9471 128.951 81.9543C128.755 81.9967 128.576 82.0957 128.436 82.2391C128.364 82.0217 128.093 81.9651 127.858 81.9434C127.86 81.9166 127.86 81.8897 127.858 81.863C127.819 81.6934 127.682 81.576 127.61 81.4282C127.734 81.3108 127.727 81.0564 127.712 80.876C127.916 80.876 128.062 80.5651 128.193 80.4194C128.323 80.576 128.627 80.5173 128.806 80.4412C128.806 80.6586 129.086 80.7455 129.284 80.8107C129.246 80.8937 129.233 80.9859 129.247 81.076C129.28 81.2207 129.345 81.3561 129.438 81.4716C129.391 81.4837 129.347 81.5059 129.31 81.5367C129.272 81.5675 129.242 81.6061 129.221 81.6499" fill="#A32C31"></path>
  <path d="M129.481 80.5413C129.481 80.5673 129.471 80.5923 129.453 80.6106C129.434 80.629 129.409 80.6394 129.383 80.6394C129.357 80.6394 129.332 80.6291 129.313 80.6108C129.295 80.5925 129.284 80.5675 129.283 80.5413C129.284 80.5149 129.294 80.4898 129.313 80.4711C129.332 80.4525 129.357 80.4417 129.383 80.4412C129.41 80.4417 129.435 80.4525 129.453 80.4713C129.471 80.49 129.481 80.5151 129.481 80.5413Z" fill="#A32C31"></path>
  <path d="M129.772 81.3722C129.768 81.396 129.756 81.4177 129.738 81.4334C129.72 81.4491 129.696 81.4577 129.672 81.4577C129.648 81.4577 129.625 81.4491 129.607 81.4334C129.589 81.4177 129.577 81.396 129.573 81.3722C129.571 81.358 129.572 81.3435 129.576 81.3296C129.58 81.3158 129.587 81.303 129.597 81.2921C129.606 81.2812 129.618 81.2724 129.631 81.2664C129.644 81.2604 129.658 81.2573 129.672 81.2573C129.687 81.2573 129.701 81.2604 129.714 81.2664C129.727 81.2724 129.739 81.2812 129.748 81.2921C129.758 81.303 129.765 81.3158 129.769 81.3296C129.773 81.3435 129.774 81.358 129.772 81.3722Z" fill="#A32C31"></path>
  <path d="M129.468 82.1588C129.467 82.1852 129.456 82.2104 129.438 82.229C129.419 82.2477 129.394 82.2584 129.368 82.259C129.341 82.2584 129.316 82.2476 129.298 82.2289C129.28 82.2102 129.27 82.185 129.27 82.1588C129.27 82.1328 129.28 82.1079 129.298 82.0895C129.317 82.0711 129.342 82.0608 129.368 82.0608C129.394 82.0608 129.419 82.071 129.438 82.0894C129.456 82.1077 129.467 82.1326 129.468 82.1588Z" fill="#A32C31"></path>
  <path d="M128.722 82.5851C128.721 82.6115 128.71 82.6366 128.692 82.6553C128.673 82.674 128.648 82.6847 128.621 82.6853C128.595 82.6847 128.57 82.6739 128.552 82.6552C128.534 82.6364 128.523 82.6113 128.523 82.5851C128.523 82.5591 128.534 82.5341 128.552 82.5158C128.571 82.4974 128.595 82.4871 128.621 82.4871C128.648 82.4871 128.673 82.4973 128.692 82.5156C128.71 82.534 128.721 82.5589 128.722 82.5851Z" fill="#A32C31"></path>
  <path d="M127.884 82.4239C127.884 82.4499 127.873 82.4748 127.855 82.4932C127.837 82.5116 127.812 82.5219 127.786 82.5219C127.76 82.5219 127.734 82.5117 127.716 82.4934C127.697 82.475 127.686 82.4501 127.686 82.4239C127.686 82.3975 127.697 82.3724 127.715 82.3537C127.734 82.335 127.759 82.3243 127.786 82.3237C127.812 82.3243 127.837 82.3351 127.855 82.3538C127.873 82.3726 127.884 82.3977 127.884 82.4239Z" fill="#A32C31"></path>
  <path d="M127.323 81.7716C127.323 81.7844 127.321 81.7972 127.316 81.8091C127.311 81.821 127.304 81.8318 127.294 81.8409C127.285 81.85 127.275 81.8572 127.263 81.8621C127.251 81.867 127.238 81.8696 127.225 81.8696C127.199 81.8696 127.174 81.8593 127.155 81.841C127.136 81.8227 127.126 81.7978 127.125 81.7716C127.126 81.7452 127.136 81.72 127.155 81.7013C127.174 81.6827 127.199 81.6719 127.225 81.6714C127.251 81.672 127.276 81.6828 127.295 81.7015C127.313 81.7202 127.323 81.7454 127.323 81.7716Z" fill="#A32C31"></path>
  <path d="M127.331 80.9022C127.33 80.9286 127.32 80.9538 127.301 80.9724C127.282 80.9911 127.257 81.0018 127.231 81.0024C127.205 81.0018 127.18 80.991 127.161 80.9723C127.143 80.9536 127.133 80.9284 127.133 80.9022C127.133 80.8762 127.143 80.8513 127.162 80.8329C127.18 80.8145 127.205 80.8042 127.231 80.8042C127.257 80.8042 127.282 80.8144 127.301 80.8328C127.32 80.8511 127.33 80.876 127.331 80.9022Z" fill="#A32C31"></path>
  <path d="M127.893 80.2503C127.892 80.2765 127.881 80.3014 127.863 80.3198C127.844 80.3381 127.819 80.3483 127.792 80.3483C127.769 80.3448 127.747 80.3329 127.731 80.3147C127.716 80.2965 127.707 80.2733 127.707 80.2492C127.707 80.2252 127.716 80.202 127.731 80.1838C127.747 80.1656 127.769 80.1537 127.792 80.1501C127.819 80.1501 127.845 80.1607 127.863 80.1795C127.882 80.1983 127.893 80.2238 127.893 80.2503Z" fill="#A32C31"></path>
  <path d="M128.743 80.0936C128.743 80.12 128.732 80.1451 128.713 80.1638C128.695 80.1825 128.67 80.1932 128.643 80.1938C128.617 80.1938 128.591 80.1832 128.572 80.1644C128.554 80.1456 128.543 80.1202 128.543 80.0936C128.543 80.067 128.554 80.0415 128.572 80.0227C128.591 80.004 128.617 79.9934 128.643 79.9934C128.67 79.994 128.695 80.0047 128.713 80.0234C128.732 80.042 128.743 80.0672 128.743 80.0936Z" fill="#A32C31"></path>
  <path fill-rule="evenodd" clip-rule="evenodd" d="M175.937 82.6256L175.957 82.6517C176.069 82.7865 176.212 82.8921 176.374 82.9595C176.536 83.0269 176.712 83.0541 176.887 83.0387C177.268 83.0211 177.641 82.9154 177.974 82.73C178.049 82.693 178.122 82.6509 178.192 82.6039L178.431 82.4365L178.555 82.6974L178.515 82.7517C178.385 82.9157 178.239 83.0671 178.081 83.2039C177.909 83.3552 177.724 83.4913 177.528 83.6104C177.348 83.7189 177.152 83.8009 176.948 83.8539C176.735 83.9081 176.516 83.9351 176.296 83.9344C176.07 83.9375 175.845 83.9075 175.628 83.8452C175.442 83.7909 175.271 83.6959 175.126 83.5669C175.004 83.4575 174.895 83.3334 174.802 83.1974C174.711 83.0665 174.638 82.9239 174.585 82.7734C174.428 82.3065 174.405 81.8051 174.518 81.3256C174.619 80.8488 174.856 80.4116 175.2 80.0668C175.434 79.837 175.71 79.654 176.013 79.5277C176.314 79.4059 176.635 79.3446 176.959 79.3472C177.248 79.3452 177.532 79.4202 177.783 79.5646C178.029 79.7142 178.256 79.893 178.459 80.0973L178.544 80.1755L175.937 82.6256ZM175.755 82.1104L176.694 81.2169C176.806 81.1044 176.876 80.9573 176.894 80.7995C176.908 80.7065 176.902 80.6117 176.876 80.5212C176.857 80.4388 176.814 80.3636 176.755 80.3038C176.689 80.2432 176.606 80.2058 176.518 80.1973C176.444 80.188 176.37 80.1955 176.3 80.219C176.136 80.2914 176.007 80.4236 175.937 80.5886C175.838 80.8037 175.774 81.0335 175.748 81.2691C175.706 81.5464 175.706 81.8286 175.748 82.106" fill="#3B4443"></path>
  <path fill-rule="evenodd" clip-rule="evenodd" d="M172.285 80.5085C172.118 80.5085 171.929 80.7063 171.833 80.8215C171.593 81.1214 171.391 81.45 171.233 81.7998V82.9629C171.243 83.0979 171.225 83.2335 171.179 83.3607C171.107 83.4895 171.002 83.5974 170.876 83.6738C170.776 83.7416 170.666 83.795 170.55 83.8325C170.42 83.8733 170.286 83.9024 170.15 83.9195L170.005 83.9455V80.4672C170.007 80.4379 169.999 80.4087 169.983 80.3846C169.963 80.3693 169.938 80.361 169.913 80.3606H169.896C169.806 80.3662 169.72 80.3955 169.646 80.4454L169.518 80.0389C169.781 79.8255 170.057 79.6274 170.344 79.4454C170.393 79.4136 170.447 79.388 170.502 79.3693C170.553 79.3506 170.605 79.3403 170.659 79.3389C170.758 79.3386 170.854 79.369 170.935 79.4258C171.012 79.4853 171.071 79.5662 171.102 79.6584C171.159 79.8769 171.195 80.1005 171.209 80.3259C171.209 80.4715 171.224 80.6172 171.226 80.7607C171.281 80.678 171.339 80.5976 171.398 80.5172C171.457 80.4367 171.537 80.3346 171.615 80.2432C171.692 80.1541 171.768 80.0693 171.85 79.9845C171.933 79.8998 172.018 79.8193 172.105 79.7411C172.191 79.66 172.285 79.5872 172.385 79.5237C172.477 79.4665 172.574 79.4198 172.676 79.3845L172.752 79.365L172.831 79.3454C172.885 79.3359 172.941 79.3308 172.996 79.3302C173.088 79.3271 173.179 79.3451 173.264 79.3827C173.348 79.4204 173.422 79.4768 173.481 79.5476C173.59 79.6799 173.665 79.8376 173.698 80.0063C173.724 80.1293 173.736 80.2546 173.735 80.3802V83.0216C173.735 83.1238 173.774 83.1542 173.874 83.1173C174.028 83.0484 174.171 82.9576 174.298 82.8477L174.448 83.1564C174.15 83.4716 173.746 83.9042 173.263 83.9042C173.164 83.9044 173.067 83.8835 172.976 83.843C172.886 83.8026 172.805 83.7434 172.739 83.6694C172.601 83.5146 172.523 83.3143 172.522 83.1064V80.9324C172.523 80.8275 172.497 80.7242 172.446 80.6324C172.413 80.5688 172.357 80.5199 172.289 80.4954L172.285 80.5085Z" fill="#3B4443"></path>
  <path fill-rule="evenodd" clip-rule="evenodd" d="M168.4 83.0996C167.685 83.817 166.661 84.0671 165.661 84.0671C164.738 84.0922 163.833 83.805 163.094 83.2518C162.777 82.9897 162.52 82.6632 162.339 82.294C162.158 81.9247 162.058 81.5213 162.046 81.1104C162.046 81.0017 162.046 80.893 162.046 80.7822C162.021 80.3131 162.091 79.844 162.252 79.4027C162.413 78.9615 162.661 78.5572 162.982 78.214C163.303 77.8708 163.689 77.5958 164.118 77.4054C164.548 77.2151 165.011 77.1132 165.481 77.106C165.568 77.106 165.652 77.106 165.739 77.106C167.996 77.106 169.361 78.1647 169.361 80.38C169.361 81.3583 169.144 82.3757 168.411 83.1062M163.368 80.5887C163.368 82.0561 164.348 83.4562 165.759 83.4562C167.17 83.4562 168.15 82.0539 168.15 80.5887C168.15 79.1234 167.172 77.7212 165.759 77.7212C164.346 77.7212 163.368 79.1234 163.368 80.5887Z" fill="#3B4443"></path>
  <path fill-rule="evenodd" clip-rule="evenodd" d="M144.505 82.6256L144.525 82.6538C144.638 82.7877 144.781 82.8926 144.943 82.9599C145.105 83.0272 145.281 83.0549 145.455 83.0408C145.837 83.0232 146.209 82.9176 146.542 82.7321C146.618 82.6944 146.69 82.6516 146.76 82.6038L146.999 82.4386L147.125 82.6995L147.084 82.7517C146.953 82.9157 146.808 83.0671 146.649 83.2039C146.477 83.3554 146.292 83.4914 146.097 83.6104C145.916 83.7189 145.72 83.8009 145.516 83.8539C145.303 83.9091 145.084 83.9362 144.864 83.9343C144.638 83.9375 144.413 83.9075 144.196 83.8452C144.011 83.791 143.839 83.6968 143.694 83.5691C143.572 83.4578 143.463 83.3331 143.368 83.1973C143.278 83.0665 143.205 82.9248 143.151 82.7756C142.994 82.3086 142.971 81.8069 143.086 81.3277C143.185 80.8508 143.421 80.4133 143.766 80.069C144 79.8378 144.276 79.654 144.579 79.5276C144.88 79.4069 145.201 79.3456 145.525 79.3472C145.814 79.3451 146.098 79.4202 146.349 79.5646C146.595 79.7143 146.822 79.8932 147.025 80.0972L147.11 80.1777L144.505 82.6256ZM144.323 82.1103L145.262 81.2168C145.374 81.1044 145.444 80.9572 145.462 80.7994C145.476 80.7065 145.47 80.6117 145.444 80.5212C145.424 80.4395 145.383 80.3646 145.325 80.3038C145.258 80.2444 145.174 80.2079 145.086 80.1994C145.013 80.1895 144.938 80.1962 144.868 80.219C144.705 80.2928 144.575 80.4256 144.505 80.5907C144.406 80.805 144.342 81.0341 144.316 81.269C144.274 81.5464 144.274 81.8286 144.316 82.106" fill="#3B4443"></path>
  <path fill-rule="evenodd" clip-rule="evenodd" d="M151.104 82.2236L149.583 84.0693L147.989 81.1192L147.704 80.6257L147.27 79.9952L147.354 79.9061C147.472 79.7773 147.6 79.6581 147.737 79.5496C147.815 79.4865 147.987 79.3474 148.093 79.3474C148.151 79.3521 148.208 79.3684 148.259 79.3953C148.311 79.4222 148.356 79.4591 148.393 79.5039C148.499 79.6217 148.59 79.7516 148.665 79.8909C148.863 80.2409 149.05 80.5996 149.237 80.9583C149.398 81.267 149.557 81.5757 149.728 81.8801C149.793 81.995 149.866 82.1054 149.946 82.2105L150.007 82.2888L150.646 81.0714C150.468 80.7818 150.248 80.5203 149.994 80.2953C149.952 80.2692 149.911 80.2431 149.872 80.2126L149.767 80.1387L149.854 80.0496C150.022 79.873 150.2 79.706 150.387 79.5496C150.488 79.4528 150.611 79.3833 150.746 79.3474C150.803 79.3524 150.859 79.3688 150.91 79.3957C150.962 79.4226 151.007 79.4594 151.044 79.5039C151.149 79.6217 151.24 79.7516 151.315 79.8909C151.515 80.2409 151.7 80.5996 151.887 80.9583C152.048 81.267 152.209 81.5757 152.378 81.8801C152.443 81.995 152.516 82.1054 152.596 82.2105C152.623 82.2482 152.652 82.2845 152.683 82.3192C152.8 82.1288 152.9 81.9288 152.983 81.7214C153.086 81.5085 153.159 81.2825 153.2 81.0496C153.184 80.8429 153.108 80.6453 152.983 80.48C152.847 80.2764 152.667 80.1056 152.457 79.98L152.4 79.9452V79.8148L152.45 79.78C152.566 79.6898 152.674 79.5894 152.772 79.48C152.889 79.3536 153.015 79.2352 153.148 79.1256C153.186 79.0957 153.226 79.0681 153.268 79.043C153.307 79.0203 153.351 79.007 153.396 79.0039C153.436 79.006 153.476 79.0171 153.511 79.0365C153.55 79.0545 153.588 79.0756 153.624 79.0996C153.787 79.2053 153.926 79.3437 154.033 79.5061C154.154 79.6871 154.245 79.8869 154.302 80.0974L154.313 80.1365L152.254 84.0671L151.104 82.2236Z" fill="#3B4443"></path>
  <path fill-rule="evenodd" clip-rule="evenodd" d="M160.033 83.669C159.977 83.7082 159.92 83.7429 159.861 83.7777C159.807 83.8087 159.75 83.8363 159.692 83.8603C159.636 83.8847 159.579 83.9036 159.52 83.9169C159.465 83.9281 159.409 83.934 159.353 83.9343C159.236 83.9374 159.12 83.9143 159.013 83.8669C158.916 83.8192 158.835 83.7435 158.781 83.6495C158.728 83.559 158.691 83.4606 158.67 83.3581C158.645 83.2425 158.632 83.1244 158.633 83.006V78.9037C158.63 78.6397 158.662 78.3765 158.729 78.121C158.782 77.9082 158.878 77.7085 159.011 77.534C159.156 77.3568 159.353 77.2303 159.574 77.1732C159.795 77.1188 160.023 77.0947 160.25 77.1014L161.396 77.0884L161.305 77.2536C161.186 77.4771 161.003 77.6597 160.779 77.7775C160.569 77.8763 160.341 77.9325 160.109 77.9428C160.069 77.9442 160.029 77.9478 159.99 77.9536L159.909 77.9667C159.907 77.9774 159.907 77.9885 159.909 77.9993L159.874 82.782C159.873 82.809 159.878 82.8359 159.89 82.8603C159.899 82.8721 159.911 82.8815 159.924 82.8879C159.938 82.8943 159.953 82.8975 159.968 82.8973C160.042 82.8991 160.116 82.8873 160.185 82.8625C160.381 82.7989 160.566 82.705 160.733 82.5842L160.755 82.569L160.774 82.5842C160.864 82.6625 160.953 82.7386 161.048 82.8016L161.072 82.8212L160.987 82.9081C160.874 83.0179 160.754 83.121 160.629 83.2168C160.435 83.369 160.237 83.5212 160.037 83.6647L160.033 83.669Z" fill="#3B4443"></path>
  <path fill-rule="evenodd" clip-rule="evenodd" d="M155.608 82.6256L155.628 82.6538C155.741 82.7877 155.884 82.8926 156.046 82.9599C156.208 83.0272 156.383 83.0549 156.558 83.0408C156.939 83.0226 157.311 82.917 157.645 82.7321C157.72 82.6933 157.792 82.6505 157.862 82.6038L158.099 82.4386L158.225 82.6995L158.184 82.7517C158.054 82.9157 157.908 83.0671 157.749 83.2039C157.578 83.3559 157.393 83.492 157.197 83.6104C157.016 83.7189 156.821 83.8009 156.617 83.8539C156.404 83.9091 156.184 83.9362 155.964 83.9343C155.739 83.9375 155.514 83.9075 155.297 83.8452C155.112 83.7901 154.941 83.6959 154.795 83.5691C154.673 83.4584 154.564 83.3336 154.471 83.1973C154.381 83.0665 154.308 82.9248 154.254 82.7756C154.097 82.3084 154.075 81.807 154.188 81.3277C154.289 80.8514 154.526 80.4144 154.869 80.069C155.103 79.8382 155.379 79.6545 155.682 79.5276C155.983 79.4069 156.305 79.3457 156.63 79.3472C156.918 79.3451 157.202 79.4202 157.451 79.5646C157.698 79.7148 157.925 79.8936 158.13 80.0972L158.212 80.1777L155.608 82.6256ZM155.425 82.1103L156.364 81.2168C156.476 81.104 156.548 80.9572 156.567 80.7994C156.578 80.7064 156.572 80.612 156.549 80.5212C156.528 80.4394 156.486 80.3644 156.428 80.3038C156.361 80.2441 156.277 80.2074 156.188 80.1994C156.115 80.1895 156.041 80.1962 155.971 80.219C155.808 80.2928 155.678 80.4256 155.608 80.5907C155.509 80.8054 155.446 81.0344 155.419 81.269C155.379 81.5466 155.379 81.8284 155.419 82.106" fill="#3B4443"></path>
  <path fill-rule="evenodd" clip-rule="evenodd" d="M142.222 82.6151V78.1606C142.216 78.0737 142.23 77.9866 142.262 77.9057C142.295 77.8248 142.345 77.7522 142.409 77.6932C142.553 77.5878 142.714 77.5077 142.885 77.4563L143.139 77.3563V77.2193L143.022 77.1758C142.958 77.1525 142.892 77.1358 142.824 77.1258C142.748 77.1134 142.671 77.1055 142.594 77.1019C142.511 77.0975 142.427 77.0975 142.344 77.1019C142.261 77.1019 142.181 77.1215 142.1 77.1367H142.087C141.912 77.1727 141.742 77.235 141.585 77.3215C141.433 77.4037 141.297 77.5118 141.183 77.6411C141.072 77.7686 140.986 77.9161 140.931 78.0758C140.873 78.2354 140.843 78.4039 140.844 78.5737V83.0564C140.846 83.3116 140.798 83.5648 140.705 83.8021C140.392 84.4065 139.579 84.7043 138.783 84.7C136.985 84.7 136.291 83.063 137.578 82.3086L137.544 82.1803H137.326C137.11 82.1791 136.901 82.2564 136.737 82.3977C136.56 82.5574 136.43 82.7627 136.361 82.9912C136.327 83.0967 136.302 83.2052 136.287 83.3151V83.8021C136.296 83.8753 136.309 83.9479 136.326 84.0195C136.354 84.1362 136.392 84.2504 136.439 84.3608C136.612 84.7547 136.911 85.0798 137.289 85.2848C137.714 85.5064 138.189 85.6164 138.668 85.6044H138.7C139.179 85.6031 139.656 85.5298 140.113 85.387C140.524 85.2596 140.907 85.0536 141.239 84.7804C141.551 84.5239 141.8 84.2007 141.97 83.8347C142.136 83.4587 142.222 83.0523 142.222 82.6412V82.626V82.6151Z" fill="#3B4443"></path>
  <path d="M115.676 87.5825C115.667 87.6447 115.625 87.7023 115.558 87.7442C115.491 87.7861 115.404 87.8093 115.315 87.8093C115.225 87.8093 115.138 87.7861 115.071 87.7442C115.005 87.7023 114.962 87.6447 114.953 87.5825V75.0246C114.962 74.9624 115.005 74.9048 115.071 74.8629C115.138 74.821 115.225 74.7979 115.315 74.7979C115.404 74.7979 115.491 74.821 115.558 74.8629C115.625 74.9048 115.667 74.9624 115.676 75.0246V87.5825Z" fill="white"></path>
  <path d="M5.81082 79.3755C5.7477 78.768 5.52679 78.3302 5.14808 78.0619C4.77726 77.7858 4.29993 77.6477 3.71608 77.6477C3.47939 77.6477 3.24664 77.6714 3.01784 77.7187C2.78904 77.766 2.5839 77.8449 2.40244 77.9554C2.22886 78.0658 2.08685 78.2157 1.97639 78.4051C1.87382 78.5866 1.82254 78.8154 1.82254 79.0915C1.82254 79.3519 1.89749 79.5649 2.0474 79.7306C2.20519 79.8884 2.41033 80.0186 2.6628 80.1211C2.92316 80.2237 3.21508 80.3105 3.53856 80.3815C3.86204 80.4446 4.18947 80.5156 4.52084 80.5945C4.8601 80.6734 5.19147 80.7681 5.51495 80.8785C5.83843 80.9811 6.12641 81.1231 6.37888 81.3046C6.63925 81.4861 6.84438 81.7149 6.99429 81.991C7.15208 82.2671 7.23098 82.6143 7.23098 83.0325C7.23098 83.4822 7.12841 83.8688 6.92328 84.1923C6.72603 84.5078 6.46962 84.7682 6.15402 84.9733C5.83843 85.1706 5.48339 85.3126 5.0889 85.3994C4.70231 85.4941 4.31571 85.5414 3.92911 85.5414C3.45572 85.5414 3.006 85.4822 2.57996 85.3639C2.1618 85.2455 1.79098 85.068 1.4675 84.8313C1.15191 84.5867 0.899434 84.279 0.71008 83.9082C0.528615 83.5295 0.437882 83.0837 0.437882 82.5709H1.503C1.503 82.9259 1.57007 83.2336 1.70419 83.494C1.84621 83.7465 2.02767 83.9556 2.24859 84.1212C2.47739 84.2869 2.7417 84.4092 3.04151 84.4881C3.34132 84.567 3.64902 84.6065 3.96461 84.6065C4.21708 84.6065 4.46956 84.5828 4.72203 84.5355C4.98239 84.4881 5.21514 84.4092 5.42028 84.2988C5.62541 84.1804 5.79109 84.0226 5.91733 83.8254C6.04357 83.6281 6.10669 83.3757 6.10669 83.068C6.10669 82.776 6.02779 82.5393 5.86999 82.3579C5.72009 82.1764 5.51495 82.0305 5.25459 81.92C5.00212 81.8017 4.71414 81.707 4.39066 81.636C4.06718 81.565 3.73581 81.494 3.39655 81.4229C3.06518 81.344 2.73775 81.2573 2.41427 81.1626C2.09079 81.06 1.79887 80.9298 1.53851 80.772C1.28603 80.6064 1.0809 80.3973 0.923104 80.1448C0.773198 79.8844 0.698245 79.561 0.698245 79.1744C0.698245 78.7483 0.785033 78.3814 0.958608 78.0737C1.13218 77.7581 1.36099 77.5017 1.64502 77.3045C1.93694 77.0993 2.26437 76.9494 2.6273 76.8548C2.99811 76.7522 3.37682 76.7009 3.76342 76.7009C4.19736 76.7009 4.59974 76.7522 4.97056 76.8548C5.34138 76.9573 5.66486 77.1191 5.941 77.34C6.22503 77.5609 6.44595 77.841 6.60374 78.1802C6.76943 78.5116 6.86016 78.91 6.87594 79.3755H5.81082ZM9.23621 76.9021H10.3605V85.3521H9.23621V76.9021ZM12.8433 76.9021H13.9676V84.4053H18.4411V85.3521H12.8433V76.9021ZM22.2503 85.3521H20.9721L18.0016 76.9021H19.2088L21.623 84.2278H21.6467L24.0846 76.9021H25.2563L22.2503 85.3521ZM26.7513 76.9021H32.5858V77.8489H27.8756V80.5353H32.2663V81.4821H27.8756V84.4053H32.6213V85.3521H26.7513V76.9021ZM34.5779 76.9021H38.5544C39.3591 76.9021 39.9864 77.0993 40.4361 77.4938C40.8937 77.8883 41.1225 78.4288 41.1225 79.1152C41.1225 79.628 41.0041 80.0777 40.7675 80.4643C40.5386 80.8509 40.1678 81.1152 39.655 81.2573V81.2809C39.8996 81.3283 40.0968 81.4072 40.2467 81.5176C40.4045 81.6281 40.5268 81.7622 40.6136 81.92C40.7083 82.0699 40.7753 82.2395 40.8148 82.4289C40.8621 82.6182 40.8976 82.8155 40.9213 83.0206C40.9371 83.2258 40.9489 83.4348 40.9568 83.6479C40.9647 83.8609 40.9844 84.07 41.016 84.2751C41.0475 84.4802 41.0909 84.6775 41.1462 84.8668C41.2093 85.0483 41.3 85.21 41.4184 85.3521H40.1639C40.085 85.2653 40.0298 85.1469 39.9982 84.997C39.9745 84.8471 39.9587 84.6814 39.9509 84.5C39.943 84.3106 39.9351 84.1094 39.9272 83.8964C39.9193 83.6834 39.8956 83.4743 39.8562 83.2692C39.8246 83.064 39.7852 82.8707 39.7378 82.6893C39.6905 82.4999 39.6155 82.3382 39.513 82.204C39.4104 82.062 39.2763 81.9516 39.1106 81.8727C38.9449 81.7859 38.724 81.7425 38.4479 81.7425H35.7022V85.3521H34.5779V76.9021ZM38.0455 80.7957C38.3058 80.7957 38.5544 80.776 38.7911 80.7365C39.0278 80.6971 39.2329 80.6221 39.4065 80.5117C39.5879 80.3933 39.7299 80.2395 39.8325 80.0501C39.943 79.8529 39.9982 79.6004 39.9982 79.2927C39.9982 78.8667 39.8799 78.5195 39.6432 78.2513C39.4065 77.983 39.0238 77.8489 38.4952 77.8489H35.7022V80.7957H38.0455ZM47.1569 76.9021H51.1333C51.9381 76.9021 52.5653 77.0993 53.015 77.4938C53.4726 77.8883 53.7014 78.4288 53.7014 79.1152C53.7014 79.628 53.5831 80.0777 53.3464 80.4643C53.1176 80.8509 52.7468 81.1152 52.2339 81.2573V81.2809C52.4785 81.3283 52.6758 81.4072 52.8257 81.5176C52.9835 81.6281 53.1058 81.7622 53.1925 81.92C53.2872 82.0699 53.3543 82.2395 53.3937 82.4289C53.4411 82.6182 53.4766 82.8155 53.5003 83.0206C53.516 83.2258 53.5279 83.4348 53.5358 83.6479C53.5436 83.8609 53.5634 84.07 53.5949 84.2751C53.6265 84.4802 53.6699 84.6775 53.7251 84.8668C53.7882 85.0483 53.879 85.21 53.9973 85.3521H52.7428C52.6639 85.2653 52.6087 85.1469 52.5771 84.997C52.5535 84.8471 52.5377 84.6814 52.5298 84.5C52.5219 84.3106 52.514 84.1094 52.5061 83.8964C52.4982 83.6834 52.4746 83.4743 52.4351 83.2692C52.4036 83.064 52.3641 82.8707 52.3168 82.6893C52.2694 82.4999 52.1945 82.3382 52.0919 82.204C51.9894 82.062 51.8552 81.9516 51.6895 81.8727C51.5239 81.7859 51.3029 81.7425 51.0268 81.7425H48.2812V85.3521H47.1569V76.9021ZM50.6244 80.7957C50.8848 80.7957 51.1333 80.776 51.37 80.7365C51.6067 80.6971 51.8118 80.6221 51.9854 80.5117C52.1669 80.3933 52.3089 80.2395 52.4115 80.0501C52.5219 79.8529 52.5771 79.6004 52.5771 79.2927C52.5771 78.8667 52.4588 78.5195 52.2221 78.2513C51.9854 77.983 51.6028 77.8489 51.0741 77.8489H48.2812V80.7957H50.6244ZM55.8503 76.9021H61.6848V77.8489H56.9746V80.5353H61.3652V81.4821H56.9746V84.4053H61.7203V85.3521H55.8503V76.9021ZM64.8012 84.4053H66.671C66.7973 84.4053 66.9551 84.3974 67.1444 84.3816C67.3338 84.3579 67.535 84.3106 67.748 84.2396C67.961 84.1607 68.1701 84.0502 68.3752 83.9082C68.5882 83.7662 68.7776 83.5729 68.9433 83.3283C69.109 83.0837 69.2431 82.78 69.3457 82.4171C69.4561 82.0462 69.5113 81.6005 69.5113 81.0797C69.5113 80.5748 69.4601 80.1251 69.3575 79.7306C69.2628 79.3282 69.1011 78.9889 68.8723 78.7128C68.6514 78.4288 68.3634 78.2157 68.0083 78.0737C67.6533 77.9238 67.2154 77.8489 66.6947 77.8489H64.8012V84.4053ZM63.6769 76.9021H66.5763C67.8782 76.9021 68.8802 77.2335 69.5824 77.8962C70.2845 78.559 70.6356 79.5688 70.6356 80.9259C70.6356 81.636 70.5567 82.2671 70.3989 82.8194C70.2411 83.3638 69.9966 83.8254 69.6652 84.2041C69.3338 84.5749 68.9117 84.8589 68.3989 85.0562C67.8861 85.2534 67.2785 85.3521 66.5763 85.3521H63.6769V76.9021ZM72.6014 76.9021H78.4359V77.8489H73.7257V80.5353H78.1163V81.4821H73.7257V84.4053H78.4714V85.3521H72.6014V76.9021ZM80.428 76.9021H85.9784V77.8489H81.5523V80.5353H85.434V81.4821H81.5523V85.3521H80.428V76.9021ZM87.8627 76.9021H88.987V85.3521H87.8627V76.9021ZM91.458 76.9021H92.6533L97.1031 83.7544H97.1268V76.9021H98.1919V85.3521H96.9611L92.5468 78.5708H92.5231V85.3521H91.458V76.9021ZM100.602 76.9021H106.437V77.8489H101.727V80.5353H106.117V81.4821H101.727V84.4053H106.472V85.3521H100.602V76.9021ZM109.553 84.4053H111.423C111.549 84.4053 111.707 84.3974 111.897 84.3816C112.086 84.3579 112.287 84.3106 112.5 84.2396C112.713 84.1607 112.922 84.0502 113.127 83.9082C113.34 83.7662 113.53 83.5729 113.695 83.3283C113.861 83.0837 113.995 82.78 114.098 82.4171C114.208 82.0462 114.263 81.6005 114.263 81.0797C114.263 80.5748 114.212 80.1251 114.11 79.7306C114.015 79.3282 113.853 78.9889 113.624 78.7128C113.403 78.4288 113.116 78.2157 112.76 78.0737C112.405 77.9238 111.968 77.8489 111.447 77.8489H109.553V84.4053ZM108.429 76.9021H111.328C112.63 76.9021 113.632 77.2335 114.334 77.8962C115.037 78.559 115.388 79.5688 115.388 80.9259C115.388 81.636 115.309 82.2671 115.151 82.8194C114.993 83.3638 114.749 83.8254 114.417 84.2041C114.086 84.5749 113.664 84.8589 113.151 85.0562C112.638 85.2534 112.031 85.3521 111.328 85.3521H108.429V76.9021Z" fill="#3B4443"></path>
  <defs>
    <linearGradient id="paint0_linear_1844_1305" x1="123.049" y1="81.4828" x2="133.804" y2="81.4828" gradientUnits="userSpaceOnUse">
      <stop stop-color="#CA893C"></stop>
      <stop offset="0.17" stop-color="#E7B262"></stop>
      <stop offset="0.32" stop-color="#FED481"></stop>
      <stop offset="0.68" stop-color="#FCEEA3"></stop>
      <stop offset="1" stop-color="#FAD16D"></stop>
    </linearGradient>
    <linearGradient id="paint1_linear_1844_1305" x1="126.125" y1="81.6374" x2="130.768" y2="81.6374" gradientUnits="userSpaceOnUse">
      <stop stop-color="#EEC15E"></stop>
      <stop offset="0.13" stop-color="#FFF7D9"></stop>
      <stop offset="0.23" stop-color="#EEC15E"></stop>
      <stop offset="0.35" stop-color="#FCE78C"></stop>
      <stop offset="0.47" stop-color="#FFDEAD"></stop>
      <stop offset="0.59" stop-color="#EEC15E"></stop>
      <stop offset="0.73" stop-color="#FCE78C"></stop>
      <stop offset="0.86" stop-color="#EEC15E"></stop>
      <stop offset="1" stop-color="#FFF7D9"></stop>
    </linearGradient>
  </defs>
</svg>
