<svg xmlns="http://www.w3.org/2000/svg" width="199" height="62" viewBox="0 0 199 62" fill="none">
  <path d="M180.541 5.38893L175.386 14.9267L170.037 24.8045C169.663 25.5139 169.473 25.9512 169.473 26.1115C169.473 26.5051 169.872 26.6994 170.664 26.6994V26.9521H165.353V26.6994C166.062 26.6994 166.66 26.5731 167.146 26.3156C167.627 26.0629 168.161 25.4021 168.74 24.3332L181.712 0.423279L195.035 23.5218C195.035 23.6433 195.356 24.202 196.012 25.1981C196.668 26.199 197.659 26.6994 199 26.6994V26.9521H190.662V26.6994C191.425 26.6994 191.804 26.4808 191.804 26.0435C191.804 24.824 181.455 7.1478 180.541 5.38407" fill="#58595B"/>
  <path d="M131.021 0.884861V13.0998H134.753C137.697 13.0998 139.874 12.5896 141.293 11.579C142.711 10.5684 143.426 9.2322 143.426 7.58509C143.426 5.93797 142.731 4.46576 141.332 3.03243C139.932 1.60396 137.469 0.889719 133.946 0.889719H131.021V0.884861ZM124.37 0.675934V0.423279H134.476C137.041 0.423279 138.892 0.467008 140.044 0.549606C141.186 0.627347 142.362 0.904296 143.562 1.3756C144.762 1.84204 145.67 2.47367 146.283 3.27051C146.895 4.06735 147.201 5.04881 147.201 6.21006C147.201 7.5365 146.657 8.79977 145.564 9.99989C144.47 11.2049 142.935 12.2155 140.943 13.0463L143.465 15.879C144.018 16.5884 145.476 18.1432 147.842 20.5434C150.208 22.9388 152.045 24.4061 153.333 24.9308C154.62 25.4556 155.869 25.718 157.088 25.718C158.308 25.718 159.654 25.3779 161.199 24.7025L161.345 25.0572C159.411 26.2281 156.894 26.8063 153.804 26.8063C151.744 26.8063 149.966 26.3593 148.488 25.4604C147.007 24.5616 144.417 22.1031 140.729 18.0897C140.695 18.0654 140.68 18.0411 140.68 18.0168L137.08 13.9743L133.912 14.0472H131.026V24.0417C131.026 24.8482 131.167 25.4216 131.454 25.7763C131.745 26.1212 132.445 26.2962 133.553 26.2962V26.5488H124.374V26.2962C125.507 26.2621 126.211 26.0824 126.483 25.7617C126.765 25.441 126.906 24.7948 126.906 23.8133V3.04215C126.906 2.36192 126.789 1.80802 126.551 1.36588C126.313 0.923731 125.584 0.695369 124.374 0.680793" fill="#58595B"/>
  <path d="M55.1081 26.5537V26.301C56.2354 26.301 56.9545 26.1504 57.2897 25.8394C57.6201 25.5285 57.7853 25.0037 57.7853 24.2603V2.85752C57.7853 2.09955 57.6541 1.55537 57.3966 1.21526C57.1342 0.884861 56.3568 0.700228 55.0547 0.675934V0.423279H64.6313V0.675934C63.747 0.675934 63.1251 0.758533 62.7704 0.923731C62.4157 1.08893 62.1825 1.28814 62.0659 1.51164C61.959 1.73514 61.9007 2.24531 61.9007 3.03729V21.384C61.9007 22.9582 62.4108 24.066 63.4458 24.7073C64.4807 25.3536 66.2493 25.6742 68.7564 25.6742H73.1147C75.2137 25.6742 76.7539 25.2904 77.7305 24.5373C78.7071 23.7793 79.2513 22.3557 79.3679 20.2616H79.7129V26.5488H55.0984L55.1081 26.5537Z" fill="#58595B"/>
  <path d="M49.4187 0.423279V0.675934C48.9571 0.637064 48.4324 0.695369 47.8639 0.831414C47.2906 0.977177 46.9553 1.18124 46.8484 1.45334C46.7415 1.72543 46.6929 2.36678 46.6929 3.38712V23.4538C46.6929 24.5421 46.7512 25.2127 46.8776 25.4556C46.9942 25.6985 47.2323 25.8977 47.5821 26.0532C47.9222 26.2184 48.5393 26.2962 49.4284 26.2962V26.5488H39.9004V26.2962C41.1005 26.2962 41.8536 26.1261 42.1403 25.7957C42.4318 25.4556 42.5776 24.6879 42.5776 23.4927V3.62034C42.5776 2.3765 42.4124 1.56509 42.0917 1.18124C41.771 0.797403 41.0325 0.632205 39.9004 0.675934V0.423279H49.4284L49.4187 0.423279Z" fill="#58595B"/>
  <path d="M33.8412 22.448V26.5537H0L27.8067 1.40475H9.14904C7.60881 1.40475 6.54474 1.55051 5.97141 1.84204C5.39322 2.13356 4.9948 2.8478 4.76644 3.98475H4.42147L4.6061 0.423279H33.9919L6.1852 25.5771H29.8619C31.2369 25.5771 32.1553 25.373 32.6314 24.9503C33.1124 24.5373 33.3942 23.7016 33.4914 22.448H33.8364H33.8412Z" fill="#58595B"/>
  <path d="M100.634 5.38893L95.4791 14.9267L90.1296 24.8045C89.7555 25.5139 89.566 25.9512 89.566 26.1115C89.566 26.5051 89.9644 26.6994 90.7564 26.6994V26.9521H85.4458V26.6994C86.1552 26.6994 86.7528 26.5731 87.2387 26.3156C87.7197 26.0629 88.2542 25.4021 88.8324 24.3332L101.805 0.423279L115.128 23.5218C115.128 23.6433 115.449 24.202 116.105 25.1981C116.76 26.199 117.752 26.6994 119.088 26.6994V26.9521H110.75V26.6994C111.513 26.6994 111.892 26.4808 111.892 26.0435C111.892 24.824 101.543 7.1478 100.629 5.38407" fill="#58595B"/>
  <path d="M56.0505 35.8193C55.7347 35.5277 55.0205 35.1487 53.9613 35.1487C53.2713 35.1487 52.664 35.3674 52.664 35.9747C52.664 36.5821 53.5191 36.6258 54.3888 36.689C55.4189 36.757 57.0417 36.8639 57.0417 38.4673C57.0417 39.8569 55.8805 40.3962 54.5054 40.3962C52.9895 40.3962 52.0032 39.7694 51.3618 39.1912L51.9594 38.5061C52.4259 38.9289 53.2373 39.5459 54.5249 39.5459C55.38 39.5459 56.0554 39.2544 56.0554 38.6033C56.0554 37.8794 55.3946 37.7336 54.3888 37.651C53.1207 37.5635 51.6776 37.4567 51.6776 36.067C51.6776 34.6774 52.9361 34.2985 53.9953 34.2985C55.21 34.2985 56.1866 34.7746 56.6481 35.1342L56.0505 35.8241V35.8193Z" fill="#58595B"/>
  <path d="M59.8306 34.4686H58.8442V40.2213H59.8306V34.4686Z" fill="#58595B"/>
  <path d="M63.0669 34.4686V39.3419H66.6041V40.2213H62.0806V34.4686H63.0669Z" fill="#58595B"/>
  <path d="M72.828 34.4686L70.1557 40.2213H69.2568L66.5894 34.4686H67.7166L69.7087 38.9629H69.7621L71.7542 34.4686H72.828Z" fill="#58595B"/>
  <path d="M77.5266 37.6608H75.311V39.3419H79.2078V40.2213H74.3247V34.4686H78.994V35.3529H75.311V36.7765H77.5266V37.6608Z" fill="#58595B"/>
  <path d="M80.9082 40.2213V34.4686H84.081C84.8487 34.4686 85.3783 34.6775 85.7475 35.0759C86.039 35.3869 86.2042 35.7901 86.2042 36.2323C86.2042 37.0097 85.6941 37.5976 84.9361 37.8794L86.3111 40.2213H85.1742L83.9401 38.0106H81.8945V40.2213H80.9082ZM81.8945 35.3529V37.1312H84.2559C84.7758 37.1312 85.2179 36.7279 85.2179 36.2323C85.2179 36.0137 85.1305 35.8193 84.9798 35.659C84.7077 35.3772 84.3871 35.348 84.081 35.348H81.8945V35.3529Z" fill="#58595B"/>
  <path d="M90.6689 40.2213V34.4686H93.8417C94.6094 34.4686 95.139 34.6775 95.5083 35.0759C95.7998 35.3869 95.965 35.7901 95.965 36.2323C95.965 37.0097 95.4548 37.5976 94.6969 37.8794L96.0719 40.2213H94.9349L93.7008 38.0106H91.6553V40.2213H90.6689ZM91.6553 35.3529V37.1312H94.0166C94.5365 37.1312 94.9787 36.7279 94.9787 36.2323C94.9787 36.0137 94.8912 35.8193 94.7406 35.659C94.4685 35.3772 94.1478 35.348 93.8417 35.348H91.6553V35.3529Z" fill="#58595B"/>
  <path d="M101.081 37.6608H98.8706V39.3419H102.762V40.2213H97.8843V34.4686H102.554V35.3529H98.8706V36.7765H101.081V37.6608Z" fill="#58595B"/>
  <path d="M104.463 40.2213V34.4686H107.223C108.263 34.4686 108.846 34.7601 109.337 35.2363C109.847 35.7659 110.119 36.5044 110.119 37.3401C110.119 38.1758 109.818 38.9872 109.274 39.5168C108.778 39.959 108.263 40.2213 107.223 40.2213H104.463ZM107.179 39.3419C107.913 39.3419 108.156 39.1767 108.501 38.8949C108.87 38.5256 109.089 37.962 109.089 37.3449C109.089 36.7279 108.895 36.208 108.535 35.8387C108.209 35.5375 107.903 35.3529 107.179 35.3529H105.455V39.3419H107.179Z" fill="#58595B"/>
  <path d="M115.196 37.6608H112.985V39.3419H116.882V40.2213H111.999V34.4686H116.668V35.3529H112.985V36.7765H115.196V37.6608Z" fill="#58595B"/>
  <path d="M118.583 40.2213V34.4686H123.209V35.3529H119.569V36.7765H121.78V37.6608H119.569V40.2213H118.583Z" fill="#58595B"/>
  <path d="M125.691 34.4686H124.705V40.2213H125.691V34.4686Z" fill="#58595B"/>
  <path d="M133.13 34.4686V40.2213H132.26L128.937 36.2323H128.927V40.2213H127.941V34.4686H128.815L132.139 38.4625H132.144V34.4686H133.13Z" fill="#58595B"/>
  <path d="M138.596 37.6608H136.385V39.3419H140.277V40.2213H135.399V34.4686H140.068V35.3529H136.385V36.7765H138.596V37.6608Z" fill="#58595B"/>
  <path d="M141.978 40.2213V34.4686H144.737C145.777 34.4686 146.36 34.7601 146.851 35.2363C147.361 35.7659 147.633 36.5044 147.633 37.3401C147.633 38.1758 147.332 38.9872 146.788 39.5168C146.292 39.959 145.777 40.2213 144.737 40.2213H141.978ZM144.694 39.3419C145.427 39.3419 145.67 39.1767 146.015 38.8949C146.384 38.5256 146.603 37.962 146.603 37.3449C146.603 36.7279 146.409 36.208 146.049 35.8387C145.724 35.5375 145.418 35.3529 144.694 35.3529H142.969V39.3419H144.694Z" fill="#58595B"/>
  <path d="M21.4126 55.405H24.7991C26.1207 55.405 26.7135 55.609 27.1799 56.0415C27.4326 56.2795 27.5686 56.5759 27.5686 56.9646C27.5686 57.7275 26.8398 58.1064 26.1207 58.1745V58.2328C26.8398 58.2571 27.9136 58.6069 27.9136 59.671C27.9136 60.084 27.729 60.4241 27.4326 60.7059C27.0342 61.0703 26.4851 61.2889 25.5036 61.2889H21.4077V55.405H21.4126ZM24.8914 57.9218C25.9166 57.9218 26.3394 57.5574 26.3394 57.0229C26.3394 56.2261 25.5765 56.0998 24.5708 56.0998H22.5981V57.9218H24.8914ZM25.1198 60.5941C25.9507 60.5941 26.66 60.4775 26.66 59.6467C26.66 59.1122 26.1693 58.5875 25.1295 58.5875H22.5981V60.5941H25.1198Z" fill="#58595B"/>
  <path d="M31.8639 58.8255L28.8271 55.405H30.2896L32.6947 58.1647L35.1144 55.405H36.1299L33.0397 58.8255V61.2889H31.8639V58.8255Z" fill="#58595B"/>
  <path d="M43.622 58.534L45.1866 57.2999C45.6773 58.0918 46.8677 60.0985 49.2679 60.0985C52.0423 60.0985 52.7176 58.4174 52.7176 56.5079V49.2538H55.1179V56.7411C55.1179 59.0247 53.6505 61.5901 49.3797 61.5901C45.4829 61.5901 43.967 59.1656 43.6172 58.534" fill="#58595B"/>
  <path d="M60.6274 49.2538H71.5694V50.6968H63.0568V54.3603H67.9059V55.7839H63.0568V59.8167H72.0552V61.2889H60.6274V49.2538Z" fill="#58595B"/>
  <path d="M75.1553 49.2538H77.7207L80.8692 58.0238L84.2509 49.2538H85.9757L89.2408 58.0238L92.4573 49.2538H94.2551L89.6392 61.2889H88.167L84.6687 52.2613L81.1461 61.2889H79.6788L75.1553 49.2538Z" fill="#58595B"/>
  <path d="M98.2827 49.2538H109.22V50.6968H100.707V54.3603H105.561V55.7839H100.707V59.8167H109.711V61.2889H98.2827V49.2538Z" fill="#58595B"/>
  <path d="M113.792 49.2538H116.217V59.8167H123.519V61.2889H113.792V49.2538Z" fill="#58595B"/>
  <path d="M129.884 55.2689C129.884 51.7026 133.383 48.8068 137.629 48.8068C141.876 48.8068 145.374 51.6977 145.374 55.2689C145.374 58.8401 141.9 61.7068 137.629 61.7068C133.358 61.7068 129.884 58.8401 129.884 55.2689ZM142.692 55.2689C142.692 52.3974 140.85 50.1381 137.629 50.1381C134.408 50.1381 132.498 52.4022 132.498 55.2689C132.498 58.1356 134.388 60.3998 137.629 60.3998C140.87 60.3998 142.692 58.1599 142.692 55.2689Z" fill="#58595B"/>
  <path d="M149.305 49.2538H151.472L159.333 57.9995V49.2538H160.99V61.2889H159.192L150.981 52.2176V61.2889H149.305V49.2538Z" fill="#58595B"/>
  <path d="M166.155 49.2538H177.097V50.6968H168.579V54.3603H173.433V55.7839H168.579V59.8167H177.583V61.2889H166.155V49.2538Z" fill="#58595B"/>
</svg>